<?xml version="1.0" standalone="no"?>
<!DOCTYPE svg PUBLIC "-//W3C//DTD SVG 20010904//EN"
 "http://www.w3.org/TR/2001/REC-SVG-20010904/DTD/svg10.dtd">
<svg version="1.0" xmlns="http://www.w3.org/2000/svg"
 width="260.000000pt" height="260.000000pt" viewBox="0 0 260.000000 260.000000"
 preserveAspectRatio="xMidYMid meet">
<metadata>
Created by potrace 1.14, written by Peter Selinger 2001-2017
</metadata>
<g transform="translate(0.000000,260.000000) scale(0.100000,-0.100000)"
fill="#000000" stroke="none">
<path d="M130 1300 l0 -1170 1170 0 1170 0 0 1170 0 1170 -1170 0 -1170 0 0
-1170z m695 1016 c71 -32 150 -124 212 -243 67 -130 92 -206 109 -337 8 -60
19 -115 25 -123 9 -10 45 -13 140 -13 l128 0 10 38 c5 20 14 78 20 128 13 108
44 202 105 321 104 202 249 296 352 228 44 -28 58 -72 58 -170 0 -112 -27
-212 -90 -339 -58 -115 -72 -135 -156 -222 -79 -84 -85 -111 -42 -196 14 -28
37 -93 49 -144 13 -51 39 -119 57 -151 l33 -58 3 -222 c2 -154 0 -223 -7 -223
-7 0 -11 46 -11 137 l0 136 -26 -49 c-15 -27 -36 -67 -47 -88 -17 -32 -22 -65
-27 -190 l-7 -151 -1 116 c-2 138 -10 155 -66 146 l-38 -6 46 35 c25 19 46 38
46 41 0 3 -6 1 -12 -5 -7 -5 -24 -13 -37 -17 -24 -7 -108 -61 -126 -81 -21
-23 -122 -72 -160 -77 -35 -5 -37 -4 -15 5 14 6 48 21 76 33 72 31 205 172
256 269 11 21 28 41 39 43 10 3 19 12 19 19 0 11 -18 14 -74 14 -40 0 -89 3
-107 6 -32 5 -33 5 -15 -10 12 -9 39 -16 65 -16 59 0 45 -13 -50 -47 -55 -20
-97 -27 -164 -29 -94 -3 -145 3 -145 16 0 12 64 19 71 8 9 -14 21 6 14 24 -5
14 36 38 66 38 17 0 35 17 27 25 -2 2 -28 -5 -58 -15 -39 -13 -58 -15 -67 -8
-7 6 -13 7 -13 4 0 -4 -12 5 -27 19 -16 14 -34 23 -40 20 -7 -2 -13 0 -13 5 0
6 9 10 21 10 12 0 18 4 13 11 -3 6 0 15 7 20 11 7 10 9 -4 9 -10 0 -15 5 -12
10 3 6 2 10 -4 10 -5 0 -13 -5 -16 -10 -3 -6 -11 -10 -17 -10 -6 0 -3 9 8 21
13 14 18 33 16 62 -1 23 -3 92 -5 154 -2 99 -5 115 -25 140 -12 15 -20 34 -17
42 4 11 3 12 -10 1 -10 -8 -15 -9 -15 -1 0 6 -5 11 -10 11 -6 0 0 -14 12 -30
16 -22 22 -42 19 -68 -4 -46 -6 -48 -25 -29 -9 8 -20 17 -26 19 -18 6 0 38 21
38 26 0 24 12 -7 39 -24 21 -28 48 -7 44 14 -3 35 45 23 52 -6 4 -10 -1 -10
-10 0 -8 -11 -20 -25 -25 -14 -5 -25 -11 -25 -14 0 -2 -3 -11 -6 -20 -4 -11
-1 -16 10 -16 9 0 16 -5 16 -11 0 -6 -6 -9 -13 -6 -7 3 -23 -6 -36 -19 -13
-13 -27 -24 -31 -24 -4 0 -18 -21 -30 -47 -12 -27 -36 -70 -53 -98 -47 -74
-39 -124 21 -125 13 0 22 -6 22 -15 0 -8 -9 -15 -20 -15 -11 0 -20 5 -20 10 0
6 -4 10 -10 10 -5 0 -10 -6 -10 -12 0 -12 -119 -62 -127 -54 -6 6 24 74 47
106 13 18 26 27 35 23 18 -6 21 37 3 55 -14 14 0 67 48 171 51 110 48 127 -33
201 -99 90 -148 154 -199 255 -82 166 -112 356 -68 439 22 42 73 76 114 76 14
0 48 -11 75 -24z m372 -1048 c-3 -8 -6 -5 -6 6 -1 11 2 17 5 13 3 -3 4 -12 1
-19z m-149 -30 c-3 -7 -13 -15 -24 -17 -10 -2 -31 -12 -46 -23 -35 -24 -36
-10 -3 26 25 27 81 38 73 14z m-68 -243 c-7 -8 -18 -15 -24 -14 -6 0 -5 3 3 6
11 5 11 7 0 14 -10 6 -7 9 10 9 20 0 21 -2 11 -15z m180 11 c0 -11 -19 -15
-25 -6 -3 5 1 10 9 10 9 0 16 -2 16 -4z m-83 -143 c-3 -10 -5 -4 -5 12 0 17 2
24 5 18 2 -7 2 -21 0 -30z m-127 -48 c0 -5 11 -27 25 -47 31 -46 12 -41 -43
10 -37 35 -59 81 -45 96 8 8 63 -43 63 -59z m204 30 c-4 -8 -8 -15 -10 -15 -2
0 -4 7 -4 15 0 8 4 15 10 15 5 0 7 -7 4 -15z m35 -279 c13 -7 19 -16 13 -20
-5 -3 -21 3 -33 14 -27 22 -16 26 20 6z m76 -26 c3 -5 -1 -10 -9 -10 -9 0 -16
5 -16 10 0 6 4 10 9 10 6 0 13 -4 16 -10z"/>
<path d="M756 2305 c18 -13 18 -14 1 -15 -15 0 -13 -7 15 -41 60 -75 80 -95
74 -76 -11 34 10 16 54 -48 71 -103 72 -104 56 -62 -9 21 -26 53 -38 70 -13
18 -24 35 -24 40 -1 4 -2 12 -3 18 0 5 -25 33 -53 61 -29 28 -44 46 -33 40 11
-5 31 -22 44 -36 14 -14 29 -26 34 -26 19 0 -36 50 -78 70 -49 24 -78 27 -49
5z"/>
<path d="M973 1978 c55 -125 67 -166 47 -153 -5 3 -3 -15 5 -41 13 -45 13 -46
-6 -28 -19 17 -19 16 -14 -57 3 -41 8 -83 11 -94 3 -11 8 -28 11 -39 4 -16 1
-18 -25 -14 -17 2 -29 1 -26 -4 11 -17 63 -8 78 14 31 44 15 299 -24 388 -10
23 -10 22 -5 -10 l5 -35 -26 43 c-23 39 -43 58 -31 30z"/>
<path d="M1530 1203 c-34 -17 -100 -102 -100 -128 0 -9 20 -2 58 18 50 28 66
32 134 32 l76 -1 -18 26 c-46 65 -94 82 -150 53z"/>
<path d="M1247 1173 c-4 -3 -7 -11 -7 -17 0 -6 5 -5 12 2 6 6 9 14 7 17 -3 3
-9 2 -12 -2z"/>
<path d="M1290 1170 c0 -5 5 -10 11 -10 5 0 7 5 4 10 -3 6 -8 10 -11 10 -2 0
-4 -4 -4 -10z"/>
<path d="M1292 1026 c7 -8 17 -12 21 -9 4 3 14 -1 22 -7 8 -6 19 -9 25 -5 14
9 2 25 -14 19 -8 -3 -17 -1 -21 5 -3 6 -15 11 -26 11 -16 0 -18 -2 -7 -14z"/>
<path d="M1605 710 c-3 -5 -1 -10 4 -10 6 0 11 5 11 10 0 6 -2 10 -4 10 -3 0
-8 -4 -11 -10z"/>
<path d="M1295 110 c3 -5 8 -10 11 -10 2 0 4 5 4 10 0 6 -5 10 -11 10 -5 0 -7
-4 -4 -10z"/>
</g>
</svg>
